<?xml version="1.0" encoding="utf-8"?>
<!-- Generator: Adobe Illustrator 19.1.0, SVG Export Plug-In . SVG Version: 6.00 Build 0)  -->
<svg version="1.1" xmlns="http://www.w3.org/2000/svg" xmlns:xlink="http://www.w3.org/1999/xlink" x="0px" y="0px"
	 viewBox="0 0 1080 1440" enable-background="new 0 0 1080 1440" xml:space="preserve">
<g id="MasterLayer_1">
</g>
<g id="New_Layer">
	<path fill-rule="evenodd" clip-rule="evenodd" fill="none" stroke="#000000" stroke-miterlimit="5" d="M512.4,394.8
		c-1.9,0.2-7.3,0.9-12,1.5c-46.6,5.6-95.9,26.7-133,56.7c-78,63.3-112.8,169.5-87.5,267.6c5,19.4,10.9,35.1,20.1,53.6
		c13.7,27.2,27.1,45.9,48.3,67c20.2,20.2,38.3,33.5,63.2,46.4c60.2,31.4,128.4,38.3,193.6,19.5c21.1-6.1,49.3-18.8,67.3-30.3
		c22.4-14.4,47.5-36.8,62.4-55.6c68.8-86.7,77.2-205.9,21.1-299.9C715.4,453.5,648.5,409,568.4,396.7
		C558.4,395.2,520.2,393.9,512.4,394.8z M563.4,424.8c67.4,9.8,125.1,46,162.4,101.9c14.9,22.3,28.7,55.6,34,82.5
		c8.9,44.5,5,90.4-11,131.2c-30.5,77.7-97.6,132.1-179.9,145.9c-15.7,2.6-41.5,3.5-57.4,2c-65-6.4-125.1-39.4-163-89.6
		c-25.6-33.8-41.1-72-46.7-114.5c-2-15.6-1.5-50.5,1-65c4.3-24.6,11.2-45.8,22.2-68c18.7-37.6,45.1-67.4,79.9-90.3
		c33.3-21.8,71.1-34.4,114.5-38.1C527.6,422.1,552.7,423.2,563.4,424.8z"/>
	<polygon fill-rule="evenodd" clip-rule="evenodd" fill="none" stroke="#000000" stroke-miterlimit="5" points="526.4,479.2 
		526.4,509.2 534.9,509.2 543.4,509.2 543.4,479.2 543.4,449.2 534.9,449.2 526.4,449.2 	"/>
	<path fill-rule="evenodd" clip-rule="evenodd" fill="none" stroke="#000000" stroke-miterlimit="5" d="M509.9,458.4
		c0.8,9.6,0.9,9.8,3.8,9.8c4.5,0,4.9-1.1,4-9.6l-0.8-7.9l-3.9-0.3l-3.8-0.3L509.9,458.4z"/>
	<path fill-rule="evenodd" clip-rule="evenodd" fill="none" stroke="#000000" stroke-miterlimit="5" d="M552.4,450.9
		c0,0.5-0.5,4.1-1,8.2c-1.1,8.2-0.7,9.1,4.1,9.1c2.6,0,2.7-0.2,3.6-8.3c0.5-4.5,0.7-8.5,0.5-9c-0.2-0.4-1.9-0.7-3.8-0.7
		C553.9,450.2,552.4,450.5,552.4,450.9z"/>
	<path fill-rule="evenodd" clip-rule="evenodd" fill="none" stroke="#000000" stroke-miterlimit="5" d="M490.2,453.9
		c-1,0.2-1.8,1.2-1.8,2.1c0.1,2.5,2.7,14.2,3.3,14.9c0.4,0.3,2.1,0.3,4-0.1l3.4-0.6l-1.4-6.3c-0.7-3.4-1.6-7.2-1.8-8.5
		C495.4,453.3,494,452.9,490.2,453.9z"/>
	<path fill-rule="evenodd" clip-rule="evenodd" fill="none" stroke="#000000" stroke-miterlimit="5" d="M572,461.2
		c-2,9-1.6,10.3,3.3,9.8c2.2-0.3,2.7-1.1,4.2-8.3c1-4.4,1.7-8,1.6-8.1s-1.8-0.5-3.8-0.9l-3.6-0.7L572,461.2z"/>
	<path fill-rule="evenodd" clip-rule="evenodd" fill="none" stroke="#000000" stroke-miterlimit="5" d="M470.4,459.3
		c-1.3,0.6-2.6,1.2-2.8,1.4c-0.4,0.4,4.7,16.5,5.2,16.5c1.2,0,6.6-2.3,6.6-2.8c0-1.7-5.2-16.2-5.8-16.1
		C473.2,458.3,471.8,458.8,470.4,459.3z"/>
	<path fill-rule="evenodd" clip-rule="evenodd" fill="none" stroke="#000000" stroke-miterlimit="5" d="M592.5,465.4
		c-1.3,4-2.6,7.8-2.8,8.4c-0.5,1.4,5.7,3.8,6.8,2.7c0.3-0.5,1.8-4.2,3.2-8.5l2.5-7.6l-2.3-0.6c-1.3-0.3-2.9-0.8-3.7-1.1
		C595.2,458.3,594.2,460.2,592.5,465.4z"/>
	<path fill-rule="evenodd" clip-rule="evenodd" fill="none" stroke="#000000" stroke-miterlimit="5" d="M450.9,466.9
		c-1.6,0.9-3.1,1.7-3.3,1.8c-0.3,0.3,5.6,14.5,6.4,15.4c0.2,0.2,1.7-0.2,3.4-0.9c3.6-1.5,3.6-2.2-0.7-11.7l-2.8-6.1L450.9,466.9z"/>
	<path fill-rule="evenodd" clip-rule="evenodd" fill="none" stroke="#000000" stroke-miterlimit="5" d="M611.5,473.3
		c-1.7,4-3.1,7.5-3.1,7.9c0,0.9,5.9,3.5,6.5,2.8c0.2-0.2,2-3.8,3.9-8l3.5-7.6l-3.1-1.1c-1.7-0.6-3.4-1.1-3.8-1.1
		C615,466.2,613.3,469.4,611.5,473.3z"/>
	<path fill-rule="evenodd" clip-rule="evenodd" fill="none" stroke="#000000" stroke-miterlimit="5" d="M623.1,490.3
		c-5.9,9.9-10.7,18.4-10.7,18.9c0,1.6,9.1,6.3,10.2,5.2c0.6-0.6,5.6-8.8,11.3-18.3c8.9-15.2,10-17.5,8.6-18.5
		c-0.9-0.6-3.2-2-5.2-3.2l-3.5-2.1L623.1,490.3z"/>
	<path fill-rule="evenodd" clip-rule="evenodd" fill="none" stroke="#000000" stroke-miterlimit="5" d="M431.1,475.6
		c-2.1,1.3-4.3,2.8-4.8,3.3c-0.8,0.8,2.2,6.7,9.7,19.4c5.9,10.1,10.8,18.6,11,18.7c0.4,0.6,10.4-5.2,10.4-6.1
		c0-1.1-21.4-37.6-22-37.6C435.1,473.4,433.2,474.4,431.1,475.6z"/>
	<path fill-rule="evenodd" clip-rule="evenodd" fill="none" stroke="#000000" stroke-miterlimit="5" d="M413,488.7l-2.9,2.3l4.8,6.6
		c2.5,3.6,5,6.8,5.3,7c0.4,0.2,2-0.6,3.6-1.9l2.9-2.3l-4.8-6.3c-2.7-3.5-5.1-6.7-5.4-7.1C416.2,486.7,414.6,487.4,413,488.7z"/>
	<path fill-rule="evenodd" clip-rule="evenodd" fill="none" stroke="#000000" stroke-miterlimit="5" d="M651.3,488.6
		c-0.9,1.1-3.2,4.4-5.3,7.2l-3.6,5.2l3.2,2l3.2,2.1l4.8-6.6c2.6-3.6,4.8-6.9,4.8-7.4c0-0.4-1.2-1.6-2.7-2.7
		C652.9,486.4,652.9,486.4,651.3,488.6z"/>
	<path fill-rule="evenodd" clip-rule="evenodd" fill="none" stroke="#000000" stroke-miterlimit="5" d="M396,502.4l-2.7,2.3l5.9,6.4
		l5.8,6.5l2.7-2c1.4-1,2.7-2.3,2.7-2.8c0-0.9-9.8-11.8-11.1-12.4C398.9,500.2,397.4,501.1,396,502.4z"/>
	<path fill-rule="evenodd" clip-rule="evenodd" fill="none" stroke="#000000" stroke-miterlimit="5" d="M664,506.4l-5.6,6.2l2.7,2.8
		c1.4,1.5,2.7,2.7,2.8,2.5c0-0.1,2.7-3,6-6.5l5.8-6.2l-2.3-2.5c-1.3-1.4-2.7-2.5-3.1-2.5C669.9,500.2,667,503,664,506.4z"/>
	<path fill-rule="evenodd" clip-rule="evenodd" fill="none" stroke="#000000" stroke-miterlimit="5" d="M380.5,517.8l-2,2.6l6.1,5.6
		c3.3,3.2,6.4,5.8,6.7,6c0.4,0.1,1.7-1.1,2.9-2.7l2.2-3l-6.2-5.5c-3.4-3.1-6.5-5.6-6.9-5.6S381.6,516.4,380.5,517.8z"/>
	<path fill-rule="evenodd" clip-rule="evenodd" fill="none" stroke="#000000" stroke-miterlimit="5" d="M678.6,521l-6.3,5.7l2.8,2.7
		l2.8,2.6l6.5-5.8l6.5-5.9l-2.4-2.5c-1.4-1.4-2.7-2.6-3-2.6C685.2,515.3,682.1,517.8,678.6,521z"/>
	<path fill-rule="evenodd" clip-rule="evenodd" fill="none" stroke="#000000" stroke-miterlimit="5" d="M367.4,534.2
		c-1.2,1.7-2.1,3.3-1.9,3.5c1.8,1.6,13.1,9.5,13.8,9.5c0.5,0,1.7-1.2,2.6-2.7c2-3,2-3-8.2-10.3l-4.2-3L367.4,534.2z"/>
	<path fill-rule="evenodd" clip-rule="evenodd" fill="none" stroke="#000000" stroke-miterlimit="5" d="M692.7,536
		c-3.4,2.6-6.5,5-6.8,5.4c-0.8,0.7,2.5,5.7,3.8,5.8c1.3,0,13.7-9.1,13.7-10c0-0.5-1-2-2.2-3.4l-2.3-2.4L692.7,536z"/>
	<path fill-rule="evenodd" clip-rule="evenodd" fill="none" stroke="#000000" stroke-miterlimit="5" d="M354.6,551.4
		c-1.7,2.9-3,5.3-2.9,5.4c1,0.7,36.2,20.6,37.1,21c1.2,0.5,6.6-7.5,6.6-9.7c0-0.6-33.3-20.1-37.1-21.7
		C357.9,546.2,356.2,548.5,354.6,551.4z"/>
	<path fill-rule="evenodd" clip-rule="evenodd" fill="none" stroke="#000000" stroke-miterlimit="5" d="M701.9,550.1
		c-3.3,2.1-6.5,3.6-7.1,3.4c-0.7-0.2-36.8,21.4-80.2,48.1c-68.3,42-79.4,48.5-81.4,47.7c-1.3-0.5-18-12.8-37.3-27.5l-35-26.6
		l-3.2,3.8c-1.8,2-3.3,3.9-3.2,4.2c0,0.3,15.7,12.4,34.9,26.9c19.3,14.5,35,26.5,35,26.6c0,0.2-4.6,3.1-10.2,6.6
		c-5.7,3.4-10.5,6.4-10.7,6.5c-0.6,0.4,4.2,8.4,5.1,8.4c0.4,0,5.9-3.2,12.2-7c6.2-3.9,11.9-7,12.7-7c0.7,0,5.6,3.3,10.8,7.3
		c5.3,4,10.1,7.6,10.8,8c0.6,0.4,2.4-0.9,4.3-3.2l3.1-4l-9.6-7.2c-5.3-4-9.2-7.6-8.8-8c0.4-0.4,30.2-18.8,66.2-41
		c51.9-31.8,65.8-39.9,67.1-39.1c1.2,0.7,5.4-1.3,19-9.4c9.6-5.7,17.9-10.5,18.4-10.7c1.2-0.4-4.6-10.7-5.9-10.6
		C708.4,546.3,705.2,548,701.9,550.1z"/>
	<path fill-rule="evenodd" clip-rule="evenodd" fill="none" stroke="#000000" stroke-miterlimit="5" d="M345.9,571.2
		c-0.8,1.6-1.5,3.2-1.5,3.5c0,0.5,14.6,7.5,15.6,7.5c0.6,0,3.6-6.2,3.2-6.6c-0.2-0.2-3.9-1.9-8.1-3.8l-7.7-3.5L345.9,571.2z"/>
	<path fill-rule="evenodd" clip-rule="evenodd" fill="none" stroke="#000000" stroke-miterlimit="5" d="M713.2,572l-7.7,3.7l1.6,3
		c0.9,1.6,1.7,3.1,1.8,3.3c0.2,0.2,14.2-5.6,15.3-6.4c0.6-0.4-2.1-7.4-2.8-7.3C721.1,568.3,717.4,570,713.2,572z"/>
	<path fill-rule="evenodd" clip-rule="evenodd" fill="none" stroke="#000000" stroke-miterlimit="5" d="M338.3,590.8
		c-1.6,4.4-1.1,4.9,7.2,7.6l8,2.7l1-2.5c1.6-4.4,1.1-4.9-7.2-7.6l-8-2.7L338.3,590.8z"/>
	<path fill-rule="evenodd" clip-rule="evenodd" fill="none" stroke="#000000" stroke-miterlimit="5" d="M721.4,590.9
		c-4.1,1.4-7.7,2.7-7.8,2.9c-0.2,0.1,0.1,1.8,0.7,3.7l1.2,3.4l8.2-2.5c4.5-1.4,8.3-2.6,8.4-2.7c0.5-0.3-2.1-7.5-2.6-7.4
		C729.2,588.3,725.5,589.5,721.4,590.9z"/>
	<path fill-rule="evenodd" clip-rule="evenodd" fill="none" stroke="#000000" stroke-miterlimit="5" d="M333.1,609.9
		c-0.3,0.4-0.7,2.1-0.8,3.8l-0.4,3l8.4,1.8c4.6,0.9,8.5,1.6,8.6,1.5c0.1-0.2,0.5-1.9,0.9-3.9l0.6-3.5l-6.2-1.2
		c-3.5-0.7-7.3-1.5-8.4-1.8C334.6,609.3,333.4,609.4,333.1,609.9z"/>
	<path fill-rule="evenodd" clip-rule="evenodd" fill="none" stroke="#000000" stroke-miterlimit="5" d="M726.4,611
		c-7.4,1.7-7.5,1.7-7.2,4.7c0.2,1.6,0.7,3.3,1.1,3.7c0.3,0.4,4.4,0,8.9-1c7.5-1.5,8.3-1.9,7.8-3.7c-0.3-1.1-0.6-2.8-0.6-3.8
		C736.4,608.9,736.2,608.9,726.4,611z"/>
	<path fill-rule="evenodd" clip-rule="evenodd" fill="none" stroke="#000000" stroke-miterlimit="5" d="M329.4,631.9
		c0,1-0.3,2.8-0.6,3.9c-0.5,2-0.1,2.2,6.8,2.9c4,0.3,8,0.9,8.9,1.1c1.3,0.4,1.8-0.4,2.1-3.5l0.3-4l-6-0.6c-3.3-0.3-7.2-0.8-8.7-1.1
		C330,630.1,329.4,630.4,329.4,631.9z"/>
	<path fill-rule="evenodd" clip-rule="evenodd" fill="none" stroke="#000000" stroke-miterlimit="5" d="M735.9,630.8
		c-1.1,0.2-4.6,0.6-7.8,0.9l-5.8,0.7l0.3,3.6c0.2,3,0.7,3.7,2.3,3.5c16.3-1.5,15.5-1.3,15.5-3.8c0-2.8-1-5.6-1.9-5.4
		C738.2,630.4,737,630.6,735.9,630.8z"/>
	<path fill-rule="evenodd" clip-rule="evenodd" fill="none" stroke="#000000" stroke-miterlimit="5" d="M328.1,647.9
		c-0.4,0.3-0.7,4.2-0.7,8.5v7.8h30.5h30.5v-8.5v-8.5h-29.8C342.2,647.2,328.4,647.5,328.1,647.9z"/>
	<polygon fill-rule="evenodd" clip-rule="evenodd" fill="none" stroke="#000000" stroke-miterlimit="5" points="681.4,655.7 
		681.4,664.2 711.4,664.2 741.4,664.2 741.4,655.7 741.4,647.2 711.4,647.2 681.4,647.2 	"/>
	<path fill-rule="evenodd" clip-rule="evenodd" fill="none" stroke="#000000" stroke-miterlimit="5" d="M333,672.9
		c-4.4,0.4-4.8,0.6-4.2,2.6c0.3,1.2,0.6,3,0.6,4c0,1.6,0.6,1.8,5.8,1.2c12.2-1.3,11.8-1.1,11.4-5C346.1,671.8,346.4,671.9,333,672.9
		z"/>
	<path fill-rule="evenodd" clip-rule="evenodd" fill="none" stroke="#000000" stroke-miterlimit="5" d="M722.4,675.7
		c0,3.9,0.2,4,10.6,5c6.6,0.6,7.4,0.1,7.4-4.9c0-2.1-0.6-2.4-6.7-2.9C722.2,671.8,722.4,671.7,722.4,675.7z"/>
	<path fill-rule="evenodd" clip-rule="evenodd" fill="none" stroke="#000000" stroke-miterlimit="5" d="M343.4,692.4
		c-11.6,2.4-11.7,2.5-11.2,5.8c0.2,1.7,0.8,3.3,1.3,3.6c0.5,0.3,4.5-0.3,9-1.2c7.3-1.6,8-2,7.5-3.8c-0.3-1.2-0.6-2.9-0.6-3.9
		c0-0.9-0.3-1.7-0.7-1.6C348.2,691.4,345.9,691.8,343.4,692.4z"/>
	<path fill-rule="evenodd" clip-rule="evenodd" fill="none" stroke="#000000" stroke-miterlimit="5" d="M719.9,692.6
		c-1.9,6.4-2.1,6.2,7.1,8.1c4.6,1,8.6,1.6,8.8,1.4c0.2-0.2,0.7-1.8,1-3.6c0.8-3.6,1-3.4-9.7-5.7
		C722.1,691.8,720.2,691.7,719.9,692.6z"/>
	<path fill-rule="evenodd" clip-rule="evenodd" fill="none" stroke="#000000" stroke-miterlimit="5" d="M344.1,713.5
		c-6.8,2.1-6.9,2.2-6.3,5.1c0.4,1.7,1,3.4,1.4,3.8c1.1,1.1,16.2-4.1,16.2-5.5c0-3.1-1.4-5.7-2.9-5.6
		C351.6,711.4,347.8,712.4,344.1,713.5z"/>
	<path fill-rule="evenodd" clip-rule="evenodd" fill="none" stroke="#000000" stroke-miterlimit="5" d="M714.4,713.8
		c-0.6,1.4-1,2.9-1,3.4c0,0.8,16,6.4,16.5,5.8c0.9-1.2,2.2-6.8,1.7-7.2c-1.1-0.6-14.3-4.6-15.3-4.6
		C715.8,711.2,714.9,712.4,714.4,713.8z"/>
	<path fill-rule="evenodd" clip-rule="evenodd" fill="none" stroke="#000000" stroke-miterlimit="5" d="M352.6,732.6
		c-4,1.8-7.5,3.6-7.8,3.9c-0.3,0.3,0.2,1.9,1,3.6c1.8,3.4,1.3,3.4,11.8-1.3c5.7-2.5,5.7-2.6,4.7-5.6c-0.6-1.6-1.4-3.2-1.8-3.4
		C360.1,729.5,356.5,730.8,352.6,732.6z"/>
	<path fill-rule="evenodd" clip-rule="evenodd" fill="none" stroke="#000000" stroke-miterlimit="5" d="M707.1,732.7
		c-1.7,3.5-1.6,3.6,0.6,4.4c1.2,0.5,4.8,2.1,8,3.5c3.2,1.4,5.9,2.6,6.1,2.6c0.4,0,2.6-5.8,2.6-6.6c0-0.3-14.9-7.4-15.5-7.4
		C708.8,729.2,708,730.8,707.1,732.7z"/>
	<path fill-rule="evenodd" clip-rule="evenodd" fill="none" stroke="#000000" stroke-miterlimit="5" d="M371.1,743.4l-18.7,11.1
		l3,5.1c1.6,2.8,3.5,5,4.1,4.8c1.2-0.3,34.8-20,36.2-21.2c0.7-0.6-3.7-9.5-5.2-10.4C390.1,732.5,381.4,737.3,371.1,743.4z"/>
	<path fill-rule="evenodd" clip-rule="evenodd" fill="none" stroke="#000000" stroke-miterlimit="5" d="M677,737.3
		c-1.6,2.8-2.4,5.5-2,5.9c1.1,1.1,34.3,20,35.6,20.3c0.5,0.1,2.3-2.1,3.9-4.9l2.9-5l-15.8-8.9c-8.6-4.9-17.1-9.7-18.8-10.7l-3.1-1.8
		L677,737.3z"/>
	<path fill-rule="evenodd" clip-rule="evenodd" fill="none" stroke="#000000" stroke-miterlimit="5" d="M372.2,768.9
		c-3.7,2.7-6.8,5.1-6.8,5.5c0,0.4,1,1.9,2.3,3.3l2.2,2.6l6.7-4.8c3.7-2.7,6.7-5.3,6.7-5.8c0-1-3.3-5.5-4.1-5.5
		C379,764.2,375.9,766.3,372.2,768.9z"/>
	<path fill-rule="evenodd" clip-rule="evenodd" fill="none" stroke="#000000" stroke-miterlimit="5" d="M687.5,766.8
		c-1.1,1.5-1.9,3-1.6,3.4c0.3,0.5,3.5,2.9,7,5.5l6.6,4.6l1.9-2.3c1.1-1.3,1.9-2.8,1.9-3.3c0-0.8-8.6-7.6-12.6-9.8
		C690.1,764.5,688.6,765.3,687.5,766.8z"/>
	<path fill-rule="evenodd" clip-rule="evenodd" fill="none" stroke="#000000" stroke-miterlimit="5" d="M384.4,785.9l-6.1,5.6
		l2.4,2.5c2.9,2.8,3.2,2.7,10.7-4.1l5.3-4.8l-2.3-2.4c-1.3-1.4-2.7-2.5-3.1-2.5S387.8,782.7,384.4,785.9z"/>
	<path fill-rule="evenodd" clip-rule="evenodd" fill="none" stroke="#000000" stroke-miterlimit="5" d="M674.5,782.6l-2.2,2.3
		l6.2,5.7c3.4,3.1,6.5,5.6,6.9,5.6c0.4,0,1.7-1.1,2.9-2.4l2.3-2.5l-5.8-5.5c-3.3-3-6.4-5.5-7-5.6
		C677.2,780.2,675.7,781.3,674.5,782.6z"/>
	<path fill-rule="evenodd" clip-rule="evenodd" fill="none" stroke="#000000" stroke-miterlimit="5" d="M399.1,800.6l-5.6,6.3
		l2.8,2.7l2.7,2.6l5.8-6.6l5.8-6.5l-2.3-2.5c-1.2-1.3-2.6-2.4-3-2.4C405,794.2,402.1,797.1,399.1,800.6z"/>
	<path fill-rule="evenodd" clip-rule="evenodd" fill="none" stroke="#000000" stroke-miterlimit="5" d="M436.4,812.8
		c-6.1,10.3-11,18.7-10.8,18.9c1.1,0.9,9.6,5.5,10.1,5.5c0.7,0,23-37.1,22.5-37.5c-1.1-0.8-9.6-5.5-10.1-5.5
		C447.7,794.2,442.5,802.6,436.4,812.8z"/>
	<path fill-rule="evenodd" clip-rule="evenodd" fill="none" stroke="#000000" stroke-miterlimit="5" d="M660.4,796.7l-2.3,2.5
		l5.8,6.2c3.3,3.5,6,6.4,6,6.5c0.1,0.2,1.4-1,2.8-2.5l2.7-2.8l-5.6-6.2c-3-3.4-5.9-6.2-6.3-6.2C663.1,794.2,661.7,795.3,660.4,796.7
		z"/>
	<path fill-rule="evenodd" clip-rule="evenodd" fill="none" stroke="#000000" stroke-miterlimit="5" d="M615.7,798l-4.3,2.8
		l10.6,17.9c5.9,9.9,10.8,18.2,11,18.5c0.5,0.5,9.3-4.1,10-5.3c0.8-1.1-20.2-36.2-21.7-36.4C620.5,795.4,618,796.5,615.7,798z"/>
	<polygon fill-rule="evenodd" clip-rule="evenodd" fill="none" stroke="#000000" stroke-miterlimit="5" points="526.4,832.2 
		526.4,862.2 534.9,862.2 543.4,862.2 543.4,832.2 543.4,802.2 534.9,802.2 526.4,802.2 	"/>
	<path fill-rule="evenodd" clip-rule="evenodd" fill="none" stroke="#000000" stroke-miterlimit="5" d="M415.1,813.6
		c-2.6,3.5-4.7,6.6-4.7,6.9s1.3,1.5,2.9,2.6l2.9,2.1l5.2-7l5.1-7.1l-2.3-1.9c-1.3-1.1-2.8-1.9-3.4-2
		C420.3,807.2,417.7,810.1,415.1,813.6z"/>
	<path fill-rule="evenodd" clip-rule="evenodd" fill="none" stroke="#000000" stroke-miterlimit="5" d="M645.2,809l-2.8,1.8l4.6,6.5
		c2.6,3.5,5,6.8,5.4,7.2c0.4,0.5,2-0.3,3.6-1.6l2.8-2.4l-4.8-6.7c-2.6-3.6-5-6.6-5.4-6.6S646.7,808,645.2,809z"/>
	<path fill-rule="evenodd" clip-rule="evenodd" fill="none" stroke="#000000" stroke-miterlimit="5" d="M451,833.9
		c-1.5,3.7-3,7.3-3.3,7.9c-0.4,1.1,5.4,5.1,6.2,4.2c0.1-0.2,1.9-3.8,3.8-8.1l3.6-7.7l-2.9-1.5c-1.6-0.8-3.3-1.5-3.7-1.5
		S452.6,830.2,451,833.9z"/>
	<path fill-rule="evenodd" clip-rule="evenodd" fill="none" stroke="#000000" stroke-miterlimit="5" d="M611.2,828.4
		c-1.6,0.5-2.8,1.4-2.8,1.9c0,0.7,5.7,14.4,6.6,15.7c0.1,0.2,1.7-0.5,3.6-1.4l3.5-1.6l-3.5-7.9c-1.9-4.4-3.8-7.9-4.1-7.8
		C614.2,827.3,612.7,827.8,611.2,828.4z"/>
	<path fill-rule="evenodd" clip-rule="evenodd" fill="none" stroke="#000000" stroke-miterlimit="5" d="M469.8,842.4
		c-2.8,8.6-2.6,9.7,2,10.1c2.6,0.2,2.9-0.3,5.2-7.3c1.3-4.1,2.4-7.8,2.4-8.1c0-0.3-1.6-1-3.5-1.6l-3.4-1.1L469.8,842.4z"/>
	<path fill-rule="evenodd" clip-rule="evenodd" fill="none" stroke="#000000" stroke-miterlimit="5" d="M592.9,835.5
		c-1.6,0.5-3.1,1.1-3.3,1.2c-0.6,0.5,4.9,16.5,5.7,16.5c0.4,0,2.1-0.5,3.8-1l3-1.1l-2.5-7.7c-1.3-4.2-2.7-8-3.1-8.3
		C596.2,834.7,594.6,834.9,592.9,835.5z"/>
	<path fill-rule="evenodd" clip-rule="evenodd" fill="none" stroke="#000000" stroke-miterlimit="5" d="M491,842.3
		c-0.3,1.3-1.2,5.2-1.9,8.6l-1.4,6.3l3.4,0.6c2.3,0.4,3.8,0.2,4.3-0.5c0.9-1.6,3.3-15.1,2.8-15.7c-0.3-0.2-1.9-0.7-3.6-1
		C491.9,840.1,491.4,840.3,491,842.3z"/>
	<path fill-rule="evenodd" clip-rule="evenodd" fill="none" stroke="#000000" stroke-miterlimit="5" d="M572.1,840.9
		c-2,0.5-2,1,0.5,12.7l1,4.8l3.5-0.5c2-0.4,3.7-0.7,3.8-0.9c0.2-0.2-0.5-3.9-1.4-8.3C577.7,840.4,576.9,839.6,572.1,840.9z"/>
	<path fill-rule="evenodd" clip-rule="evenodd" fill="none" stroke="#000000" stroke-miterlimit="5" d="M511.1,843.9
		c-0.2,0.4-0.8,4.5-1.2,8.9l-0.7,8.2l3.6,0.4c4.2,0.5,4.1,0.6,5.1-10.5c0.5-5.2,0.4-6.7-0.7-6.7c-0.7,0-2.3-0.3-3.4-0.6
		C512.6,843.3,511.4,843.4,511.1,843.9z"/>
	<path fill-rule="evenodd" clip-rule="evenodd" fill="none" stroke="#000000" stroke-miterlimit="5" d="M552.6,843.9
		c-2.1,0.4-2.3,0.9-1.7,4.9c0.3,2.4,0.7,6.3,1,8.7c0.6,4.2,0.6,4.3,4,3.9c3.9-0.5,4-0.8,2.9-12.1
		C558.1,842.9,558.1,842.9,552.6,843.9z"/>
</g>
</svg>
